<svg version="1.0" xmlns="http://www.w3.org/2000/svg" width="48" height="48" viewBox="0 0 360.000000 360.000000" preserveAspectRatio="xMidYMid meet" style="width: 70%; padding-left: 16.15%;">
					  <title>Instagram</title>
					  <g transform="translate(0.000000,360.000000) scale(0.100000,-0.100000)" fill="#000000" stroke="none">
						  <path d="M1068 3254 c-117 -18 -251 -64 -338 -116 -69 -42 -181 -144 -221
							-204 -68 -99 -115 -230 -140 -389 -16 -104 -24 -1002 -10 -1230 20 -345 89
							-521 267 -684 128 -117 297 -180 536 -201 207 -19 1256 -8 1365 14 375 74 597
							301 659 676 20 117 28 730 16 1130 -9 286 -12 324 -35 412 -60 230 -199 412
							-384 506 -76 39 -194 73 -302 87 -149 20 -1284 20 -1413 -1z m1227 -244 c206
							-13 262 -24 360 -71 88 -42 103 -53 156 -119 76 -94 110 -188 129 -355 13
							-121 13 -1068 -1 -1214 -6 -64 -17 -142 -25 -174 -39 -154 -125 -260 -266
							-327 -140 -66 -199 -72 -763 -77 -689 -7 -890 14 -1035 107 -104 67 -173 174
							-211 330 -24 95 -24 98 -24 700 0 650 6 748 50 866 31 83 64 132 123 185 103
							93 217 133 417 148 152 12 909 12 1090 1z"></path>
						  <path d="M2487 2776 c-73 -27 -117 -90 -117 -166 0 -51 18 -88 64 -128 60 -53
							139 -55 204 -6 50 39 72 81 72 140 0 114 -118 198 -223 160z"></path>
						  <path d="M1620 2565 c-263 -56 -461 -239 -552 -511 -19 -58 -23 -91 -23 -199
							0 -146 11 -204 60 -312 42 -91 79 -145 147 -212 166 -166 385 -241 616 -212
							154 20 279 77 394 180 140 127 217 277 240 470 18 159 -19 327 -103 467 -43
							71 -158 187 -233 235 -146 95 -364 132 -546 94z m251 -249 c92 -20 163 -58
							236 -129 107 -102 150 -218 141 -378 -5 -72 -11 -98 -41 -160 -68 -142 -210
							-247 -361 -268 -159 -23 -299 23 -412 134 -188 184 -187 482 1 670 69 69 143
							109 236 129 83 19 119 19 200 2z"></path>
					  </g>
				  </svg>