<svg version="1.1" id="Layer_1" xmlns="http://www.w3.org/2000/svg" xmlns:xlink="http://www.w3.org/1999/xlink" x="0px" y="0px" width="247.999px" height="167px" viewBox="0 0 247.999 167" enable-background="new 0 0 247.999 167" xml:space="preserve" style="width: 60%; padding-left: 20%;">
	 <title>youtube</title>
<path d="M217.999,0H30C13.432,0,0,13.432,0,30v107c0,16.568,13.432,30,30,30h187.999c16.568,0,30-13.432,30-30V30
	C247.999,13.432,234.567,0,217.999,0z M153.722,90.505l-52.031,27.19c-1.164,0.609-2.437,0.91-3.707,0.91
	c-1.437,0-2.875-0.388-4.144-1.155c-2.396-1.449-3.856-4.048-3.856-6.845V56.394c0-2.793,1.458-5.387,3.849-6.836
	c2.391-1.453,5.359-1.551,7.839-0.262l52.031,27.016c2.645,1.375,4.309,4.106,4.313,7.09S156.362,89.122,153.722,90.505z"></path>
</svg>