<svg width="206" height="36" viewBox="0 0 206 36" fill="none" xmlns="http://www.w3.org/2000/svg">
<g clip-path="url(#clip0_968_5436)">
<g clip-path="url(#clip1_968_5436)">
<path d="M50.6116 21.4538L51.6301 20.8531C52.061 21.2579 52.4135 21.6627 52.6616 22.0675C52.9097 22.4723 53.0534 22.6812 53.0795 22.7204L51.8521 23.4777C51.5778 22.7726 51.3167 22.2633 51.0425 21.95C50.7683 21.6366 50.6246 21.4668 50.5985 21.4538H50.6116ZM56.1219 19.3907H57.5974V20.5659H56.1219V22.9815C56.1219 23.3602 56.1089 23.6997 56.0697 24C56.0305 24.3003 55.8608 24.5223 55.5474 24.679C55.2732 24.8227 54.9206 24.901 54.5028 24.9271C54.0849 24.9532 53.8629 24.9532 53.8499 24.9532L53.3145 23.6083C53.3145 23.6083 53.5234 23.6344 53.876 23.6475C54.2285 23.6605 54.4897 23.6475 54.6333 23.5822C54.777 23.5169 54.8423 23.4124 54.8423 23.2557V20.5528H49.8412V19.4037H54.8423V18.6725C54.8423 18.4897 54.8292 18.3199 54.79 18.1371C54.7509 17.9543 54.7378 17.8629 54.7378 17.8499L56.2003 17.9282C56.2003 17.9282 56.2003 18.0065 56.1611 18.1371C56.135 18.2677 56.1219 18.3983 56.1219 18.5419V19.3776V19.3907ZM49.8281 17.6932V16.5441H52.8967V14.8466H50.481V13.7236H52.8967V12.6007C52.8967 12.4179 52.8706 12.2089 52.8575 11.987C52.8575 11.765 52.8314 11.6475 52.8314 11.6475L54.2938 11.778C54.2938 11.778 54.2808 11.8825 54.2416 12.0653C54.2024 12.2481 54.1894 12.457 54.1894 12.6921V13.7106H56.7226V14.8335H54.1894V16.531H57.5844V17.6801H49.8281V17.6932ZM46.5376 13.5017L46.2373 15.3167H46.8901V12.9663C46.8901 12.7965 46.8901 12.5876 46.851 12.3526C46.8249 12.1045 46.7987 11.9739 46.7987 11.9478L48.2481 12.0653C48.2481 12.0653 48.2351 12.1959 48.1959 12.4309C48.1567 12.666 48.1437 12.8618 48.1437 13.0316V15.3428H49.4364V16.5702H48.1437V18.9859L49.5278 18.3983V19.5996L48.1437 20.2394V24.9663H46.8901V20.6442L44.6834 21.5321L44.2525 20.2525L46.8901 19.3384V16.5571H45.9369C45.9369 16.5571 45.8455 16.8314 45.7149 17.2753C45.5713 17.7193 45.4016 18.1632 45.1796 18.6203L44.0044 18.0196C44.0044 18.0196 44.1219 17.7585 44.3439 17.3014C44.5659 16.8444 44.7487 16.2699 44.9315 15.617C45.1143 14.9641 45.2318 14.4157 45.2971 13.9587C45.3624 13.5147 45.4016 13.2666 45.4016 13.2405L46.5376 13.5147V13.5017Z" fill="white"/>
<path d="M64.7529 19.5997V18.4637H67.9781V14.9773H66.9204C66.9204 14.9773 66.7638 15.2777 66.4895 15.7738C66.2153 16.27 65.8889 16.6748 65.5363 17.0143L64.4264 16.2831C64.4264 16.2831 64.8182 15.8261 65.4058 15.0296C66.0064 14.233 66.3981 13.1362 66.6071 11.7651L67.8606 12.0655C67.8606 12.0655 67.7953 12.3266 67.6908 12.7575C67.5864 13.1884 67.4558 13.5671 67.3122 13.8805H71.9346V14.9773H69.31V18.4637H72.6136V19.5997H69.31V24.9534H67.9651V19.5997H64.7398H64.7529ZM60.9139 21.8065V23.7782H62.5592V21.8065H60.9139ZM59.8562 12.4441H63.6299V13.5802H59.8562V12.4441ZM59.6996 18.6335H63.7997V19.7825H59.6996V18.6335ZM59.6996 16.5573H63.7997V17.6933H59.6996V16.5573ZM59.6212 24.8098V20.7227H63.865V24.8098H59.6212ZM59.1772 14.5334H64.1653V15.6563H59.1772V14.5334Z" fill="white"/>
<path d="M78.9337 14.5595H81.6889L81.6105 11.8174L83.1121 12.0002L83.0077 14.5595H86.0762V15.6955H83.0077V18.2026H87.0164V19.3517H82.6682L80.8662 23.2298L84.6791 22.7989C84.6791 22.7989 84.5093 22.5247 84.2612 22.146C84.0131 21.7543 83.7781 21.4278 83.5692 21.1667L84.5746 20.5399C84.5746 20.5399 84.7444 20.7358 85.0316 21.1014C85.3189 21.467 85.6062 21.8457 85.8804 22.2374C86.4027 22.9686 86.7552 23.504 86.938 23.8435C87.1209 24.1699 87.2123 24.3527 87.2253 24.3789L85.9979 25.084C85.9979 25.084 85.8804 24.8489 85.6845 24.4833C85.4756 24.1047 85.3581 23.9088 85.3319 23.8696L78.5942 24.7445L78.1894 23.4779L79.4299 23.3473L81.1404 19.3778H78.098V18.2287H81.715V15.7216H78.9337V14.5856V14.5595ZM74.8728 13.2015L75.7346 12.2613C75.9696 12.3789 76.283 12.5878 76.6747 12.8881C77.0664 13.1884 77.419 13.541 77.7585 13.9327L76.8836 14.8729C76.6878 14.6509 76.4397 14.3767 76.1263 14.0894C75.826 13.7891 75.4081 13.4888 74.8728 13.2015ZM73.9065 16.8838L74.6377 15.8653C75.1992 16.1003 75.6301 16.3615 75.9435 16.6357C76.2569 16.9099 76.5572 17.171 76.8445 17.4061L76.0871 18.5029C75.8913 18.2809 75.5779 17.9937 75.16 17.6411C74.7422 17.2885 74.3243 17.0405 73.9195 16.8707L73.9065 16.8838ZM75.0817 25.0709L73.8804 23.9088C74.1415 23.739 74.5724 23.3212 75.1731 22.6683C75.7737 22.0154 76.4527 21.0883 77.197 19.9001L78.1502 20.7097C77.5757 21.6368 77.0273 22.4855 76.505 23.2428C75.9827 24.0002 75.5126 24.6139 75.0817 25.0709Z" fill="white"/>
<path d="M94.8901 13.8151C94.9032 13.5409 94.9163 13.2275 94.8901 12.8488C94.8771 12.4702 94.864 12.2873 94.864 12.2612L96.5093 12.4832C96.5093 12.4832 96.4571 12.9925 96.3787 13.8282C96.3004 14.6638 96.2351 15.4081 96.1829 16.0349C96.209 16.0741 96.3395 16.518 96.6138 17.3668C96.888 18.2155 97.4364 19.1818 98.2851 20.2786C99.3036 21.5844 100.218 22.4854 101.04 22.9946C101.863 23.5039 102.281 23.765 102.294 23.7912C102.281 23.7912 102.059 24.0001 101.667 24.3787C101.262 24.7574 101.04 24.9663 100.988 25.0055C100.975 24.9794 100.257 24.3657 98.8597 23.1513C97.4625 21.9239 96.3265 20.2264 95.4516 18.0458C94.394 20.8662 93.2841 22.7335 92.1219 23.6345C90.9598 24.5354 90.3591 24.9925 90.32 25.0186L89.1187 23.9217C89.1187 23.9217 89.5757 23.6083 90.4505 23.0338C91.3254 22.4462 92.1872 21.4408 93.0229 20.0175C93.493 19.234 93.8978 18.3592 94.2373 17.3929C94.5768 16.4266 94.7987 15.2384 94.9032 13.8282L94.8901 13.8151Z" fill="white"/>
<path d="M120.079 17.9805H117.963V22.2634H111.878V24.6138H127.835V22.2634H120.066V17.9805H120.079Z" fill="white"/>
<path d="M123.708 15.5388L123.617 17.2754L123.552 18.1895C123.499 18.7771 123.434 19.2863 123.356 19.7303H125.484C125.549 19.0774 125.615 18.2548 125.667 17.2624C125.797 14.8728 125.876 11.4386 125.902 7.05127H113.758V9.34942H123.787V13.2275H113.301V15.5518H123.721L123.708 15.5388Z" fill="white"/>
<path d="M170.742 17.4845C170.037 18.4507 169.006 18.9469 167.634 18.9469C166.538 18.9469 165.584 18.4507 164.827 17.4975C164.07 16.5443 163.691 15.3952 163.691 14.0895C163.691 12.7837 164.07 11.5824 164.827 10.6423C165.584 9.7021 166.551 9.23203 167.7 9.23203C169.084 9.23203 170.128 9.74128 170.794 10.7467C171.447 11.7391 171.787 12.8882 171.787 14.1678C171.787 15.4475 171.434 16.5443 170.755 17.4975L170.742 17.4845ZM171.8 8.67055C170.755 7.59982 169.397 7.06445 167.765 7.06445C166.25 7.06445 164.892 7.61288 163.73 8.6836L163.456 8.94476C162.242 10.1983 161.628 11.935 161.628 14.1025C161.628 16.0481 162.229 17.7326 163.417 19.1167C164.605 20.4877 166.028 21.1798 167.674 21.1798C169.75 21.1798 171.317 20.4616 172.335 19.0383C173.367 17.602 173.889 15.9698 173.889 14.1548C173.889 12.2353 173.328 10.5509 172.205 9.14062L171.787 8.65749L171.8 8.67055Z" fill="white"/>
<path d="M177.271 6.84229H175.129V24.6138H177.271V15.4081H180.013V13.0577H177.271V6.84229Z" fill="white"/>
<path d="M140.866 15.3298H147.16V7.10344H138.751V9.44076H145.045V12.9794H138.751V21.9761H150.189V24.6138H152.305V6.84229H150.189V19.5996H140.879V15.3167L140.866 15.3298Z" fill="white"/>
<path d="M202.642 6.84229H200.501V19.3385H191.948V7.52128H189.78V21.715H200.501V24.6138H202.642V15.617H205.58V13.2797H202.642V6.84229Z" fill="white"/>
<path d="M8.69667 24.4964C7.37784 27.7869 6.98611 30.2809 8.14824 31.0775C8.90559 31.4039 10.0677 31.2342 11.3474 30.6074C10.1722 31.5998 8.13519 32.4616 4.77936 32.5791C-0.613454 32.096 -0.143378 27.3038 0.170006 24.8359C0.509506 22.1721 1.78916 18.7771 4.00896 15.0818C8.53997 7.50837 15.5519 2.05026 18.0982 3.79999C18.0982 3.79999 19.5737 4.28313 18.6988 7.35168C17.837 10.4072 16.5704 12.3658 15.343 14.207C14.1287 16.0481 11.5302 19.1558 10.9687 20.109C10.4072 21.0622 9.14063 23.282 8.68361 24.4964H8.69667Z" fill="white"/>
<path d="M20.4874 8.0827C21.8063 4.79217 22.198 2.28509 21.0359 1.50163C20.2785 1.17519 19.1164 1.34494 17.8367 1.97171C19.0119 0.979325 21.0489 0.117519 24.4047 0C29.7976 0.483134 29.3275 5.2753 29.001 7.7432C28.6615 10.407 27.3819 13.802 25.1621 17.4973C20.6311 25.0577 13.6191 30.5158 11.0728 28.7661C11.0728 28.7661 9.59733 28.2829 10.4591 25.2144C11.3209 22.1589 12.5875 20.2002 13.815 18.3591C15.0293 16.518 17.6278 13.3972 18.1893 12.457C18.7508 11.5038 20.0174 9.29706 20.4744 8.0827H20.4874Z" fill="white"/>
<path d="M162.618 34.0469V34.2259C162.618 34.3398 162.651 34.4375 162.684 34.5189C162.732 34.6979 162.846 34.8606 162.993 34.9908C163.253 35.2512 163.579 35.3651 163.937 35.3651C164.278 35.3651 164.588 35.2512 164.832 35.0234C165.076 34.7955 165.206 34.5026 165.206 34.1283C165.206 33.754 165.06 33.461 164.783 33.2332C164.604 33.103 164.441 33.0053 164.295 32.9565L163.611 32.7124C163.269 32.5985 162.993 32.452 162.781 32.273C162.439 31.9801 162.26 31.5732 162.26 31.0687C162.26 30.5967 162.423 30.2061 162.765 29.8644C162.928 29.7016 163.107 29.5877 163.318 29.4901C163.53 29.4087 163.758 29.3599 164.002 29.3599C164.36 29.3599 164.685 29.4575 164.962 29.6528C165.255 29.8481 165.483 30.1085 165.613 30.4177C165.662 30.5642 165.711 30.6944 165.727 30.8246C165.727 30.9059 165.743 31.0036 165.743 31.1338H165.125C165.108 30.8897 165.076 30.7269 165.011 30.613C164.881 30.3363 164.669 30.1573 164.392 30.0434C164.262 29.9946 164.132 29.962 164.002 29.962C163.855 29.962 163.709 29.9946 163.579 30.0597C163.123 30.255 162.895 30.5804 162.879 31.0361C162.879 31.3291 162.993 31.5895 163.221 31.7848C163.383 31.9312 163.546 32.0289 163.709 32.0777L164.425 32.3218C164.734 32.4357 165.011 32.5822 165.239 32.7775C165.629 33.1193 165.824 33.5424 165.824 34.0632C165.824 34.584 165.613 35.0396 165.239 35.3977C164.848 35.7557 164.409 35.9347 163.888 35.9347C163.497 35.9347 163.139 35.8371 162.814 35.6093C162.488 35.3977 162.26 35.1047 162.114 34.7304C162.049 34.5514 162.016 34.3724 162 34.1608V33.9655H162.618V34.0469Z" fill="white"/>
<path d="M166.605 29.4902H167.224V35.9024H166.605V29.4902Z" fill="white"/>
<path d="M168.396 29.4902H169.08L172.806 34.9747V29.4902H173.425V35.9024H172.741L169.014 30.4504V35.9024H168.396V29.4902Z" fill="white"/>
<path d="M179.951 31.2314L179.756 30.9873C179.609 30.8246 179.463 30.6618 179.284 30.5316C178.844 30.2061 178.307 30.0271 177.705 30.0271C176.973 30.0271 176.338 30.2712 175.801 30.7595C175.231 31.2965 174.938 31.9475 174.938 32.7124C174.938 33.4773 175.199 34.0957 175.736 34.6165C176.257 35.1373 176.891 35.3814 177.656 35.3814C178.47 35.3814 179.153 35.0722 179.707 34.4212L179.935 34.112H180.553L180.504 34.2259C180.455 34.3724 180.374 34.5189 180.276 34.6491C180.114 34.8932 179.902 35.1047 179.658 35.2838C179.072 35.7557 178.405 35.9836 177.656 35.9836C176.728 35.9836 175.947 35.6581 175.296 35.0234C174.645 34.3887 174.32 33.6075 174.32 32.6799C174.32 31.7522 174.645 30.971 175.296 30.3363C175.947 29.6854 176.745 29.3599 177.672 29.3599C178.242 29.3599 178.763 29.5063 179.251 29.783C179.804 30.0922 180.195 30.4665 180.423 30.9222C180.455 30.9873 180.488 31.085 180.553 31.1989H179.935L179.951 31.2314Z" fill="white"/>
<path d="M181.448 35.9024H184.719V35.2839H182.083V33.0055H184.719V32.3708H182.083V30.1249H184.719V29.4902H181.448V35.9024Z" fill="white"/>
<path d="M190.073 29.4902V35.9024H189.455V30.1249H188.348V29.4902H190.073Z" fill="white"/>
<path d="M192.873 31.6217C192.873 32.0611 193.019 32.4354 193.329 32.7446C193.638 33.0701 194.012 33.2166 194.451 33.2166C194.728 33.2166 194.989 33.1515 195.233 33.005C195.753 32.7121 196.014 32.2401 196.014 31.6217C196.014 31.1823 195.851 30.808 195.558 30.4988C195.249 30.1733 194.875 30.0105 194.435 30.0105C194.012 30.0105 193.638 30.1733 193.312 30.4988C193.019 30.7917 192.873 31.166 192.857 31.6217H192.873ZM194.988 33.7211C194.761 33.8025 194.565 33.8513 194.354 33.8513C193.735 33.8513 193.231 33.6397 192.84 33.2003C192.45 32.7609 192.254 32.2401 192.254 31.638C192.254 31.0358 192.45 30.515 192.857 30.0756C193.263 29.6199 193.784 29.3921 194.386 29.3921C194.972 29.3921 195.493 29.6199 195.916 30.0756C196.323 30.515 196.518 31.0358 196.535 31.638C196.535 31.8984 196.502 32.1425 196.421 32.354C196.307 32.6958 196.128 33.0376 195.9 33.3631L194.207 35.9019H193.491L194.988 33.7374V33.7211Z" fill="white"/>
<path d="M200.749 29.4902V30.1087L198.259 35.9024H197.592L200.114 30.1249H197.185V29.4902H200.749Z" fill="white"/>
<path d="M202.182 33.4607C202.182 33.8187 202.214 34.1117 202.247 34.3395C202.312 34.6325 202.474 34.8766 202.719 35.0881C202.963 35.2834 203.256 35.3811 203.549 35.3811C204.037 35.3811 204.411 35.1695 204.688 34.7627C204.851 34.5185 204.932 34.0791 204.932 33.4607V31.9309C204.932 31.3125 204.851 30.8893 204.672 30.6452C204.411 30.2384 204.021 30.0268 203.532 30.0268C203.125 30.0268 202.784 30.1895 202.507 30.4988C202.344 30.6778 202.247 30.8568 202.214 31.0684C202.165 31.2962 202.149 31.5891 202.149 31.9472V33.477L202.182 33.4607ZM201.547 31.9309C201.547 31.5403 201.563 31.2311 201.596 31.0033C201.645 30.7103 201.758 30.4337 201.954 30.1733C202.344 29.6525 202.865 29.3921 203.549 29.3921C204.151 29.3921 204.639 29.6037 205.013 30.0268C205.274 30.3197 205.436 30.6289 205.502 30.9707C205.534 31.1986 205.567 31.524 205.567 31.9309V33.4607C205.567 33.8513 205.55 34.1605 205.502 34.3883C205.453 34.665 205.339 34.958 205.127 35.2183C204.753 35.7391 204.216 35.9995 203.549 35.9995C202.93 35.9995 202.442 35.788 202.084 35.3648C201.84 35.0881 201.677 34.7952 201.612 34.486C201.563 34.2582 201.547 33.9164 201.547 33.4607V31.9309Z" fill="white"/>
</g>
</g>
<defs>
<clipPath id="clip0_968_5436">
<rect width="206" height="36" fill="white"/>
</clipPath>
<clipPath id="clip1_968_5436">
<rect width="205.58" height="36" fill="white"/>
</clipPath>
</defs>
</svg>
